Description

Sinopse e detalhes

Após o término da Guerra Civil Americana, o soldado Inman Balis (Jude Law) inicia o percurso para retornar à sua casa, na vila de Cold Mountain. Lá está à sua espera Ada (Nicole Kidman), sua namorada, que luta para administrar uma grande fazenda após a morte de seu pai. Para ajudá-la na tarefa chega Ruby (Renée Zellweger), enviada por sua vizinha Sally (Kathy Baker), que cria uma grande amizade com Ada. No caminho de volta Inman encontra diversos outros soldados, feridos como ele, com quem divide suas experiências da guerra.

Format : Matroska
Format version : Version 2
File size : 1.04 GiB
Duration : 2h 34mn
Overall bit rate : 968 Kbps
Encoded date : UTC 2013-05-07 09:34:43
Writing application : mkvmerge v5.8.0 ('No Sleep / Pillow') built on Sep 2 2012 15:37:04
Writing library : libebml v1.2.3 + libmatroska v1.3.0

Video
ID : 1
Format : AVC
Format/Info : Advanced Video Codec
Format profile : High@L4.1
Format settings, CABAC : Yes
Format settings, ReFrames : 4 frames
Muxing mode : Header stripping
Codec ID : V_MPEG4/ISO/AVC
Duration : 2h 34mn
Bit rate : 565 Kbps
Width : 720 pixels
Height : 304 pixels
Display aspect ratio : 2.35:1
Frame rate mode : Constant
Frame rate : 23.976 fps
Color space : YUV
Chroma subsampling : 4:2:0
Bit depth : 8 bits
Scan type : Progressive
Bits/(Pixel*Frame) : 0.108
Stream size : 623 MiB (58%)
Title : A Montanha Gelada ( by fantasma )
Writing library : x264 core 130 r2273 b3065e6
Encoding settings : cabac=1 / ref=3 / deblock=1:0:0 / analyse=0x3:0x113 / me=hex / subme=7 / psy=1 / psy_rd=1.00:0.00 / mixed_ref=1 / me_range=16 / chroma_me=1 / trellis=1 / 8x8dct=1 / cqm=0 / deadzone=21,11 / fast_pskip=1 / chroma_qp_offset=-2 / threads=3 / lookahead_threads=1 / sliced_threads=0 / nr=0 / decimate=1 / interlaced=0 / bluray_compat=0 / constrained_intra=0 / bframes=3 / b_pyramid=2 / b_adapt=1 / b_bias=0 / direct=1 / weightb=1 / open_gop=0 / weightp=2 / keyint=240 / keyint_min=23 / scenecut=40 / intra_refresh=0 / rc_lookahead=40 / rc=crf / mbtree=1 / crf=23.0 / qcomp=0.60 / qpmin=0 / qpmax=69 / qpstep=4 / vbv_maxrate=62500 / vbv_bufsize=78125 / crf_max=0.0 / nal_hrd=none / ip_ratio=1.40 / aq=1:1.00
Language : Portuguese
Default : Yes
Forced : No

Audio
ID : 2
Format : AC-3
Format/Info : Audio Coding 3
Mode extension : CM (complete main)
Format settings, Endianness : Big
Muxing mode : Header stripping
Codec ID : A_AC3
Duration : 2h 34mn
Bit rate mode : Constant
Bit rate : 384 Kbps
Channel(s) : 6 channels
Channel positions : Front: L C R, Side: L R, LFE
Sampling rate : 48.0 KHz
Bit depth : 16 bits
Compression mode : Lossy
Stream size : 424 MiB (40%)
Title : by fantasma
Language : Portuguese
Default : Yes
Forced : No

Text #1
ID : 3
Format : VobSub
Muxing mode : zlib
Codec ID : S_VOBSUB
Codec ID/Info : The same subtitle format used on DVDs
Title : English - (Caption/Normal Size Char)
Language : English
Default : No
Forced : No

Text #2
ID : 4
Format : VobSub
Muxing mode : zlib
Codec ID : S_VOBSUB
Codec ID/Info : The same subtitle format used on DVDs
Title : Spanish - (Caption/Normal Size Char)
Language : Spanish
Default : No
Forced : No

Text #3
ID : 5
Format : VobSub
Muxing mode : zlib
Codec ID : S_VOBSUB
Codec ID/Info : The same subtitle format used on DVDs
Title : Portuguese - (Caption/Normal Size Char)
Language : Portuguese
Default : No
Forced : No

Text #4
ID : 6
Format : UTF-8
Codec ID : S_TEXT/UTF8
Codec ID/Info : UTF-8 Plain Text
Title : Credito
Language : Portuguese
Default : Yes
Forced : No

Menu
00:00:00.000 : en:Chapter 01
00:05:20.601 : en:Chapter 02
00:09:12.668 : en:Chapter 03
00:14:39.168 : en:Chapter 04
00:16:54.168 : en:Chapter 05
00:22:42.168 : en:Chapter 06
00:27:42.668 : en:Chapter 07
00:34:14.168 : en:Chapter 08
00:41:52.668 : en:Chapter 09
00:46:19.168 : en:Chapter 10
00:49:41.668 : en:Chapter 11
00:52:19.168 : en:Chapter 12
00:54:45.335 : en:Chapter 13
00:56:56.335 : en:Chapter 14
01:01:00.335 : en:Chapter 15
01:05:06.835 : en:Chapter 16
01:13:04.502 : en:Chapter 17
01:19:21.502 : en:Chapter 18
01:23:33.002 : en:Chapter 19
01:28:53.903 : en:Chapter 20
01:35:39.903 : en:Chapter 21
01:46:42.403 : en:Chapter 22
01:52:06.403 : en:Chapter 23
02:00:37.070 : en:Chapter 24
02:08:36.070 : en:Chapter 25
02:16:08.570 : en:Chapter 26
02:24:13.070 : en:Chapter 27
02:27:24.570 : en:Chapter 28
02:34:11.970 : en:Chapter 29